<mxfile host="app.diagrams.net" modified="2021-08-15T08:29:09.234Z" agent="5.0 (Macintosh; Intel Mac OS X 10_15_7) AppleWebKit/537.36 (KHTML, like Gecko) Chrome/86.0.4240.193 Safari/537.36" etag="MuZak2YZbK53hofWoDjI" version="14.9.6" type="github">
  <diagram id="jpuKckYl2Pg0A0t-ymD4" name="Page-1">
    <mxGraphModel dx="946" dy="536" grid="1" gridSize="10" guides="1" tooltips="1" connect="1" arrows="1" fold="1" page="1" pageScale="1" pageWidth="827" pageHeight="1169" math="0" shadow="0">
      <root>
        <mxCell id="0" />
        <mxCell id="1" parent="0" />
        <mxCell id="0hil9uN2fCvsvwVorZG0-1" value="3" style="rounded=0;whiteSpace=wrap;html=1;fillColor=#ffe6cc;strokeColor=#d79b00;" vertex="1" parent="1">
          <mxGeometry x="170" y="150" width="50" height="50" as="geometry" />
        </mxCell>
        <mxCell id="0hil9uN2fCvsvwVorZG0-2" value="7" style="rounded=0;whiteSpace=wrap;html=1;fillColor=#ffe6cc;strokeColor=#d79b00;" vertex="1" parent="1">
          <mxGeometry x="220" y="150" width="50" height="50" as="geometry" />
        </mxCell>
        <mxCell id="0hil9uN2fCvsvwVorZG0-3" value="4" style="rounded=0;whiteSpace=wrap;html=1;fillColor=#ffe6cc;strokeColor=#d79b00;" vertex="1" parent="1">
          <mxGeometry x="270" y="150" width="50" height="50" as="geometry" />
        </mxCell>
        <mxCell id="0hil9uN2fCvsvwVorZG0-4" value="2" style="rounded=0;whiteSpace=wrap;html=1;fillColor=#ffe6cc;strokeColor=#d79b00;" vertex="1" parent="1">
          <mxGeometry x="320" y="150" width="50" height="50" as="geometry" />
        </mxCell>
        <mxCell id="0hil9uN2fCvsvwVorZG0-5" value="1" style="rounded=0;whiteSpace=wrap;html=1;fillColor=#ffe6cc;strokeColor=#d79b00;" vertex="1" parent="1">
          <mxGeometry x="370" y="150" width="50" height="50" as="geometry" />
        </mxCell>
        <mxCell id="0hil9uN2fCvsvwVorZG0-11" value="3" style="rounded=0;whiteSpace=wrap;html=1;fillColor=#dae8fc;strokeColor=#6c8ebf;" vertex="1" parent="1">
          <mxGeometry x="170" y="260" width="50" height="50" as="geometry" />
        </mxCell>
        <mxCell id="0hil9uN2fCvsvwVorZG0-12" value="7" style="rounded=0;whiteSpace=wrap;html=1;fillColor=#dae8fc;strokeColor=#6c8ebf;" vertex="1" parent="1">
          <mxGeometry x="220" y="260" width="50" height="50" as="geometry" />
        </mxCell>
        <mxCell id="0hil9uN2fCvsvwVorZG0-13" value="4" style="rounded=0;whiteSpace=wrap;html=1;fillColor=#ffe6cc;strokeColor=#d79b00;" vertex="1" parent="1">
          <mxGeometry x="270" y="260" width="50" height="50" as="geometry" />
        </mxCell>
        <mxCell id="0hil9uN2fCvsvwVorZG0-14" value="2" style="rounded=0;whiteSpace=wrap;html=1;fillColor=#ffe6cc;strokeColor=#d79b00;" vertex="1" parent="1">
          <mxGeometry x="320" y="260" width="50" height="50" as="geometry" />
        </mxCell>
        <mxCell id="0hil9uN2fCvsvwVorZG0-15" value="1" style="rounded=0;whiteSpace=wrap;html=1;fillColor=#ffe6cc;strokeColor=#d79b00;" vertex="1" parent="1">
          <mxGeometry x="370" y="260" width="50" height="50" as="geometry" />
        </mxCell>
        <mxCell id="0hil9uN2fCvsvwVorZG0-16" value="" style="shape=curlyBracket;whiteSpace=wrap;html=1;rounded=1;flipH=1;rotation=-90;" vertex="1" parent="1">
          <mxGeometry x="210" y="190" width="20" height="100" as="geometry" />
        </mxCell>
        <mxCell id="0hil9uN2fCvsvwVorZG0-17" value="3" style="rounded=0;whiteSpace=wrap;html=1;fillColor=#ffe6cc;strokeColor=#d79b00;" vertex="1" parent="1">
          <mxGeometry x="170" y="370" width="50" height="50" as="geometry" />
        </mxCell>
        <mxCell id="0hil9uN2fCvsvwVorZG0-18" value="7" style="rounded=0;whiteSpace=wrap;html=1;fillColor=#dae8fc;strokeColor=#6c8ebf;" vertex="1" parent="1">
          <mxGeometry x="220" y="370" width="50" height="50" as="geometry" />
        </mxCell>
        <mxCell id="0hil9uN2fCvsvwVorZG0-19" value="4" style="rounded=0;whiteSpace=wrap;html=1;fillColor=#dae8fc;strokeColor=#6c8ebf;" vertex="1" parent="1">
          <mxGeometry x="270" y="370" width="50" height="50" as="geometry" />
        </mxCell>
        <mxCell id="0hil9uN2fCvsvwVorZG0-20" value="2" style="rounded=0;whiteSpace=wrap;html=1;fillColor=#ffe6cc;strokeColor=#d79b00;" vertex="1" parent="1">
          <mxGeometry x="320" y="370" width="50" height="50" as="geometry" />
        </mxCell>
        <mxCell id="0hil9uN2fCvsvwVorZG0-21" value="1" style="rounded=0;whiteSpace=wrap;html=1;fillColor=#ffe6cc;strokeColor=#d79b00;" vertex="1" parent="1">
          <mxGeometry x="370" y="370" width="50" height="50" as="geometry" />
        </mxCell>
        <mxCell id="0hil9uN2fCvsvwVorZG0-22" value="" style="shape=curlyBracket;whiteSpace=wrap;html=1;rounded=1;flipH=1;rotation=-90;" vertex="1" parent="1">
          <mxGeometry x="260" y="300" width="20" height="100" as="geometry" />
        </mxCell>
        <mxCell id="0hil9uN2fCvsvwVorZG0-23" value="3" style="rounded=0;whiteSpace=wrap;html=1;fillColor=#ffe6cc;strokeColor=#d79b00;" vertex="1" parent="1">
          <mxGeometry x="170" y="470" width="50" height="50" as="geometry" />
        </mxCell>
        <mxCell id="0hil9uN2fCvsvwVorZG0-24" value="4" style="rounded=0;whiteSpace=wrap;html=1;fillColor=#ffe6cc;strokeColor=#d79b00;" vertex="1" parent="1">
          <mxGeometry x="220" y="470" width="50" height="50" as="geometry" />
        </mxCell>
        <mxCell id="0hil9uN2fCvsvwVorZG0-25" value="7" style="rounded=0;whiteSpace=wrap;html=1;fillColor=#dae8fc;strokeColor=#6c8ebf;" vertex="1" parent="1">
          <mxGeometry x="270" y="470" width="50" height="50" as="geometry" />
        </mxCell>
        <mxCell id="0hil9uN2fCvsvwVorZG0-26" value="2" style="rounded=0;whiteSpace=wrap;html=1;fillColor=#dae8fc;strokeColor=#6c8ebf;" vertex="1" parent="1">
          <mxGeometry x="320" y="470" width="50" height="50" as="geometry" />
        </mxCell>
        <mxCell id="0hil9uN2fCvsvwVorZG0-27" value="1" style="rounded=0;whiteSpace=wrap;html=1;fillColor=#ffe6cc;strokeColor=#d79b00;" vertex="1" parent="1">
          <mxGeometry x="370" y="470" width="50" height="50" as="geometry" />
        </mxCell>
        <mxCell id="0hil9uN2fCvsvwVorZG0-28" value="" style="shape=curlyBracket;whiteSpace=wrap;html=1;rounded=1;flipH=1;rotation=-90;" vertex="1" parent="1">
          <mxGeometry x="310" y="400" width="20" height="100" as="geometry" />
        </mxCell>
        <mxCell id="0hil9uN2fCvsvwVorZG0-29" value="3" style="rounded=0;whiteSpace=wrap;html=1;fillColor=#ffe6cc;strokeColor=#d79b00;" vertex="1" parent="1">
          <mxGeometry x="170" y="570" width="50" height="50" as="geometry" />
        </mxCell>
        <mxCell id="0hil9uN2fCvsvwVorZG0-30" value="4" style="rounded=0;whiteSpace=wrap;html=1;fillColor=#ffe6cc;strokeColor=#d79b00;" vertex="1" parent="1">
          <mxGeometry x="220" y="570" width="50" height="50" as="geometry" />
        </mxCell>
        <mxCell id="0hil9uN2fCvsvwVorZG0-31" value="2" style="rounded=0;whiteSpace=wrap;html=1;fillColor=#ffe6cc;strokeColor=#d79b00;" vertex="1" parent="1">
          <mxGeometry x="270" y="570" width="50" height="50" as="geometry" />
        </mxCell>
        <mxCell id="0hil9uN2fCvsvwVorZG0-32" value="7" style="rounded=0;whiteSpace=wrap;html=1;fillColor=#dae8fc;strokeColor=#6c8ebf;" vertex="1" parent="1">
          <mxGeometry x="320" y="570" width="50" height="50" as="geometry" />
        </mxCell>
        <mxCell id="0hil9uN2fCvsvwVorZG0-33" value="1" style="rounded=0;whiteSpace=wrap;html=1;fillColor=#dae8fc;strokeColor=#6c8ebf;" vertex="1" parent="1">
          <mxGeometry x="370" y="570" width="50" height="50" as="geometry" />
        </mxCell>
        <mxCell id="0hil9uN2fCvsvwVorZG0-34" value="" style="shape=curlyBracket;whiteSpace=wrap;html=1;rounded=1;flipH=1;rotation=-90;" vertex="1" parent="1">
          <mxGeometry x="360" y="500" width="20" height="100" as="geometry" />
        </mxCell>
        <mxCell id="0hil9uN2fCvsvwVorZG0-35" value="3" style="rounded=0;whiteSpace=wrap;html=1;fillColor=#ffe6cc;strokeColor=#d79b00;" vertex="1" parent="1">
          <mxGeometry x="170" y="670" width="50" height="50" as="geometry" />
        </mxCell>
        <mxCell id="0hil9uN2fCvsvwVorZG0-36" value="4" style="rounded=0;whiteSpace=wrap;html=1;fillColor=#ffe6cc;strokeColor=#d79b00;" vertex="1" parent="1">
          <mxGeometry x="220" y="670" width="50" height="50" as="geometry" />
        </mxCell>
        <mxCell id="0hil9uN2fCvsvwVorZG0-37" value="2" style="rounded=0;whiteSpace=wrap;html=1;fillColor=#ffe6cc;strokeColor=#d79b00;" vertex="1" parent="1">
          <mxGeometry x="270" y="670" width="50" height="50" as="geometry" />
        </mxCell>
        <mxCell id="0hil9uN2fCvsvwVorZG0-38" value="1" style="rounded=0;whiteSpace=wrap;html=1;fillColor=#dae8fc;strokeColor=#6c8ebf;" vertex="1" parent="1">
          <mxGeometry x="320" y="670" width="50" height="50" as="geometry" />
        </mxCell>
        <mxCell id="0hil9uN2fCvsvwVorZG0-39" value="7" style="rounded=0;whiteSpace=wrap;html=1;fillColor=#dae8fc;strokeColor=#6c8ebf;" vertex="1" parent="1">
          <mxGeometry x="370" y="670" width="50" height="50" as="geometry" />
        </mxCell>
        <mxCell id="0hil9uN2fCvsvwVorZG0-40" value="" style="shape=curlyBracket;whiteSpace=wrap;html=1;rounded=1;flipH=1;rotation=-90;" vertex="1" parent="1">
          <mxGeometry x="360" y="600" width="20" height="100" as="geometry" />
        </mxCell>
      </root>
    </mxGraphModel>
  </diagram>
</mxfile>
